<svg width="1121" height="700" xmlns="http://www.w3.org/2000/svg">
 <desc>Created with Fabric.js 3.6.3</desc>

 <g>
  <title>background</title>
  <rect fill="none" id="canvas_background" height="702" width="1123" y="-1" x="-1"/>
 </g>
 <g>
  <title>Layer 1</title>
  <g id="logo-logo" transform="matrix(1.9692780337941629,0,0,1.9692780337941629,640.0153846153846,399.978913336885) ">
   <g id="svg_2">
    <g id="svg_3" transform="matrix(1.2141226207495466,0,0,1.2141226207495466,0,0) ">
     <g id="svg_4">
      <g id="svg_5">
       <polygon fill="#ffffff" id="svg_6" stroke=" none" points="66.54024887084961,34.75347900390625 -33.45975112915039,34.75347900390625 -33.45975112915039,29.87348175048828 61.66025161743164,29.87348175048828 61.66025161743164,-160.36652374267578 -128.57975387573242,-160.36652374267578 -128.57975387573242,-65.24652099609375 -133.4597511291504,-65.24652099609375 -133.4597511291504,-165.24652099609375 66.54024887084961,-165.24652099609375 66.54024887084961,34.75347900390625 "/>
      </g>
     </g>
    </g>
   </g>
  </g>
  <g id="text-logo-path" transform="matrix(1.9692780337941629,0,0,1.9692780337941629,640.8889632744188,780.9366495505352) ">
   <path fill="#ffffff" id="svg_7" stroke=" none" stroke-linecap="round" d="m-302.46423,-57.34728l-18.44,0l0,-3.39q0,-0.54 0.35,-0.97q0.34,-0.42 0.85,-0.54l0,0l4.59,-0.89l0,-28.5q-3.9,-0.7 -4.59,-0.85l0,0q-0.51,-0.12 -0.85,-0.54q-0.35,-0.43 -0.35,-0.97l0,0l0,-3.31l12.73,0l0,34.17q3.82,0.74 4.51,0.89l0,0q0.5,0.12 0.85,0.54q0.35,0.43 0.35,0.97l0,0l0,3.39zm-14.16,-52.54l0,0q0,-1.19 0.39,-1.97l0,0q0.54,-1.08 1.12,-1.65l0,0q0.65,-0.66 1.58,-1.12l0,0q0.77,-0.39 1.89,-0.39q1.12,0 1.89,0.39l0,0q0.92,0.46 1.58,1.12l0,0q0.58,0.57 1.12,1.65l0,0q0.46,0.93 0.46,1.97l0,0q0,0.97 -0.46,1.89q-0.46,0.93 -1.12,1.58q-0.66,0.66 -1.58,1.12l0,0q-0.77,0.39 -1.89,0.39q-1.12,0 -1.89,-0.39l0,0q-0.93,-0.46 -1.58,-1.12q-0.66,-0.65 -1.12,-1.58l0,0q-0.39,-0.77 -0.39,-1.89zm37.19,52.54l-18.4,0l0,-3.32q0,-1.27 1.08,-1.5l0,0l4.59,-0.85l0,-28.55q-3.98,-0.73 -4.59,-0.92l0,0q-1.08,-0.23 -1.08,-1.51l0,0l0,-3.31l5.67,0l4.13,0q1.42,0 1.89,1.42l0,0l0.54,4.09l0,0.08q5.05,-6.25 11.3,-6.25l0,0q4.09,0 6.63,2.32l0,0q2.47,2.23 3.63,6.05l0,0q1.7,-4.24 5.21,-6.29l0,0q3.58,-2.08 6.98,-2.08l0,0q3.32,0 6.13,1.04l0,0q2.55,0.93 4.28,2.93l0,0q3.47,3.98 3.47,11.23l0,0l0,19.75q3.98,0.73 4.6,0.93l0,0q1.19,0.23 1.19,1.42l0,0l0,3.47l-12.73,0l0,-25.49q0,-4.86 -2.04,-7.14l0,0q-2.2,-2.43 -6.02,-2.43l0,0q-3.67,0 -6.02,2.35l0,0q-2.58,2.59 -2.58,7.14l0,0l0,19.75q0.15,0.04 0.73,0.17q0.58,0.14 1.6,0.35q1.02,0.21 2.14,0.41l0,0q1.2,0.23 1.2,1.42l0,0l0,3.4l-12.73,0l0,-25.5q0,-9.49 -7.56,-9.49l0,0q-4.9,0 -8.95,5.21l0,0l0,24.03l2.16,0.39q2.12,0.46 2.35,0.46l0,0q1.2,0.23 1.2,1.5l0,0l0,3.32zm70.28,0l-18.4,0l0,-3.32q0,-1.27 1.08,-1.5l0,0l4.59,-0.85l0,-28.55q-3.97,-0.73 -4.59,-0.92l0,0q-1.08,-0.23 -1.08,-1.51l0,0l0,-3.31l5.67,0l4.13,0q1.42,0 1.89,1.42l0,0l0.54,4.09l0,0.08q5.05,-6.25 11.3,-6.25l0,0q4.09,0 6.63,2.32l0,0q2.47,2.23 3.63,6.05l0,0q1.7,-4.24 5.21,-6.29l0,0q3.59,-2.08 6.98,-2.08l0,0q3.32,0 6.13,1.04l0,0q2.55,0.93 4.29,2.93l0,0q3.47,3.98 3.47,11.23l0,0l0,19.75q3.97,0.73 4.59,0.93l0,0q1.19,0.23 1.19,1.42l0,0l0,3.47l-12.73,0l0,-25.49q0,-4.86 -2.04,-7.14l0,0q-2.2,-2.43 -6.02,-2.43l0,0q-3.66,0 -6.02,2.35l0,0q-2.58,2.59 -2.58,7.14l0,0l0,19.75q0.15,0.04 0.73,0.17q0.58,0.14 1.6,0.35q1.03,0.21 2.14,0.41l0,0q1.2,0.23 1.2,1.42l0,0l0,3.4l-12.73,0l0,-25.5q0,-9.49 -7.56,-9.49l0,0q-4.9,0 -8.95,5.21l0,0l0,24.03l2.16,0.39q2.12,0.46 2.35,0.46l0,0q1.2,0.23 1.2,1.5l0,0l0,3.32zm50.76,-20.87l0,0q0,-4.13 1.35,-7.71l0,0q1.47,-3.86 3.71,-6.33l0,0q2.39,-2.62 5.94,-4.2l0,0q3.39,-1.51 7.79,-1.51l0,0l-0.16,0q3.48,0 6.64,1.2l0,0q3.09,1.15 5.21,3.39l0,0q2.43,2.59 3.51,5.63l0,0q1.23,3.51 1.23,7.56l0,0q0,1.78 -0.31,2.2l0,0q-0.42,0.58 -1.42,0.58l0,0l-26.54,0q0,3.67 0.96,6.64l0,0q0.81,2.46 2.66,4.59l0,0q1.7,1.93 3.98,2.81l0,0q2.46,0.97 5.05,0.97l0,0q2.81,0 4.59,-0.54l0,0q1.35,-0.43 3.32,-1.35l0,0q1.35,-0.66 2.35,-1.28q1,-0.61 1.58,-0.61l0,0q0.89,0 1.35,0.69l0,0l1.97,2.62q-1.12,1.43 -3.16,2.67l0,0q-2.55,1.54 -3.86,1.96l0,0q-2.62,0.85 -4.28,1.12l0,0q-2.4,0.39 -4.32,0.39l0,0q-4.29,0 -7.68,-1.39q-3.39,-1.39 -6.09,-4.21l0,0q-2.47,-2.54 -3.94,-6.71l0,0q-1.43,-4.01 -1.43,-9.18zm7.26,-3.47l0,0l21.75,0q0,-2.28 -0.73,-4.4l0,0q-0.85,-2.43 -1.89,-3.59l0,0q-1.35,-1.46 -3.24,-2.27q-1.89,-0.81 -4.36,-0.81l0,0l0.08,-0.08q-5.13,0 -7.95,2.93l0,0q-2.97,3.09 -3.66,8.22zm51.11,24.34l-18.4,0l0,-3.32q0,-1.27 1.15,-1.5l0,0l4.52,-0.85l0,-28.55q-3.82,-0.69 -4.52,-0.92l0,0q-1.15,-0.23 -1.15,-1.51l0,0l0,-3.31l5.67,0l4.05,0q1.08,0 1.46,0.38l0,0q0.43,0.43 0.66,1.51l0,0l0.46,6.25l0.08,0q4.4,-8.95 12.19,-8.95l0,0q3.08,0 5.44,1.42l0,0l-0.89,5.29q-0.27,1.04 -1,1.04l0,0q-0.62,0 -1.89,-0.39l0,0q-1.43,-0.42 -3.24,-0.42l0,0q-6.95,0 -10.3,8.41l0,0l0,19.75q0.27,0.08 0.87,0.17q0.59,0.1 1.63,0.29q1.05,0.2 2.01,0.39l0,0q1.2,0.23 1.2,1.5l0,0l0,3.32zm16.31,-1.58l0,0l0,-10.42l2.86,0q0.92,0 1.15,0.93l0,0q0,0.11 0.06,0.64q0.06,0.52 0.2,1.83q0.13,1.31 0.25,2.58l0,0q3.12,1.58 8.14,1.58l0,0q3.81,0 6.13,-1.96l0,0q2.08,-1.85 2.08,-4.02l0,0q0,-2.23 -0.96,-3.31l0,0q-1.24,-1.39 -2.36,-1.93l0,0q-1.81,-0.89 -3.31,-1.24l0,0q-5.83,-1.89 -7.37,-2.54l0,0q-1.74,-0.77 -3.55,-2.2l0,0q-3.32,-2.74 -3.32,-7.44l0,0q0,-4.79 3.78,-8.07l0,0q3.98,-3.47 11.23,-3.47l0,0l-0.08,0q4.05,0 10.42,2.16l0,0l0,2.74l0,7.52l-3.05,0q-1.12,0 -1.35,-1.12l0,0q0,-0.07 -0.06,-0.61q-0.06,-0.54 -0.19,-1.87q-0.14,-1.34 -0.25,-2.72l0,0q-3.86,-0.89 -6.14,-0.89l0,0l-0.07,0q-3.2,0 -5.48,1.77l0,0q-2.12,1.66 -2.12,3.63l0,0q0,2.04 0.96,3.01l0,0q1.58,1.81 4.55,2.74l0,0q0.66,0.19 2.41,0.71q1.76,0.52 2.49,0.79l0,0l3.82,1.43q1.39,0.5 3.32,2.04l0,0q3.24,2.55 3.24,6.98l0,0q0,5.75 -3.9,9.15l0,0q-4.24,3.7 -10.57,3.7l0,0q-6.59,0 -12.96,-2.12zm34.03,-9.95q-1.28,-3.36 -1.28,-8.53q0,-5.17 1.28,-8.52l0,0q1.54,-4.05 3.85,-6.48l0,0q2.55,-2.67 6.1,-4.13l0,0q3.47,-1.43 7.91,-1.43l0,0q4.39,0 7.86,1.43l0,0q3.55,1.46 6.1,4.13l0,0q2.39,2.5 3.78,6.48l0,0q1.35,3.85 1.35,8.52q0,4.67 -1.35,8.53l0,0q-1.39,3.97 -3.78,6.48l0,0q-2.51,2.62 -6.1,4.09l0,0q-3.47,1.42 -7.86,1.42l0,0q-4.44,0 -7.91,-1.42l0,0q-3.59,-1.47 -6.1,-4.09l0,0q-2.31,-2.43 -3.85,-6.48l0,0zm5.97,-8.37l0,0q0,3 0.81,6.32l0,0q0.66,2.74 2.2,4.75l0,0q1.39,1.81 3.67,2.81l0,0q2.58,1.12 5.21,1.12l0,0q6.09,0 8.83,-3.93l0,0q2.93,-4.21 2.93,-11.15q0,-6.94 -2.93,-11.15l0,0q-2.74,-3.93 -8.83,-3.93l0,0q-3.05,0 -5.21,0.92l0,0q-2.05,0.89 -3.67,3.01l0,0q-1.54,2.01 -2.2,4.75l0,0q-0.81,3.31 -0.81,6.48zm33.49,23.68l0,0q0,-2.89 1.93,-5.05q1.92,-2.16 5.2,-3.32l0,0q-1.73,-0.69 -2.7,-2.12l0,0q-1,-1.43 -1,-3.55l0,0q0,-0.5 0.31,-1.74l0,0q0.23,-0.96 0.92,-1.89q0.7,-0.92 1.66,-1.77l0,0q0.16,-0.16 2.24,-1.39l0,0q-2.97,-1.7 -4.67,-4.44l0,0q-1.66,-2.7 -1.66,-6.4l0,0q0,-3.09 1.08,-5.28l0,0q1.16,-2.4 3.17,-4.05l0,0q1.96,-1.62 4.9,-2.59l0,0q2.7,-0.89 6.09,-0.89l0,0l-0.15,0.16q2.58,0 4.82,0.58l0,0q2.12,0.54 4.09,1.73l0,0l10.91,0l0,2.59q0,1.31 -1.65,1.66l0,0l-4.52,0.65q1.27,2.28 1.27,5.67l0,0q0,3.01 -1.11,5.29l0,0q-1.24,2.54 -3.05,4.05l0,0q-2.16,1.77 -4.75,2.66l0,0q-2.62,0.89 -6.01,0.89l0,0q-2.82,0 -5.29,-0.7l0,0q-1.08,0.66 -1.89,1.74l0,0q-0.65,0.88 -0.65,1.73l0,0q0,1.47 1.11,2.12l0,0q1.39,0.85 3.09,1.05l0,0q2.55,0.31 4.32,0.31l0,0q1.58,0 4.9,0.3l0,0q4.09,0.39 4.9,0.54l0,0q2.35,0.47 4.36,1.43l0,0q1.77,0.85 3.08,2.78l0,0q1.12,1.62 1.12,4.43l0,0q0,2.78 -1.27,5.06l0,0q-1.2,2.12 -3.82,4.24l0,0q-2.31,1.85 -5.82,3.01l0,0q-3.4,1.12 -7.91,1.12l0,0q-4.59,0 -7.76,-0.89l0,0q-3.35,-0.92 -5.43,-2.35l0,0q-2.2,-1.51 -3.24,-3.4l0,0q-1.12,-2.04 -1.12,-3.97zm6.25,-0.62l0,0q0,1.28 0.73,2.51q0.73,1.23 2.12,2.01l0,0q1.58,0.88 3.55,1.31l0,0q2.31,0.5 5.05,0.5l0,0q2.24,0 5.06,-0.58l0,0q2.04,-0.42 3.81,-1.47l0,0q1.55,-0.92 2.36,-2.23l0,0q0.88,-1.47 0.88,-2.86l0,0l0.08,0q0,-1.42 -0.81,-2.35l0,0q-0.85,-0.96 -2.27,-1.43l0,0q-1.51,-0.5 -3.24,-0.69l0,0q-3.13,-0.39 -3.98,-0.43l0,0q-0.69,-0.03 -2.06,-0.07q-1.37,-0.04 -2.1,-0.08l0,0q-0.43,-0.04 -4.05,-0.46l0,0q-2.24,1.04 -3.71,2.62l0,0q-1.42,1.54 -1.42,3.7zm2.46,-30.59l0,0q0,1.7 0.62,3.24l0,0q0.66,1.66 1.66,2.55l0,0q1.27,1.12 2.78,1.66l0,0q1.58,0.54 3.62,0.54l0,0l0,0.15q2.01,0 3.78,-0.61l0,0q1.51,-0.54 2.78,-1.66l0,0q1.16,-1.04 1.66,-2.63l0,0q0.54,-1.69 0.54,-3.24l0,0q0,-3.66 -2.28,-5.82q-2.27,-2.16 -6.48,-2.16q-4.2,0 -6.48,2.16l0,0q-2.2,2.08 -2.2,5.82zm51.66,27.43l-18.4,0l0,-3.32q0,-1.27 1.15,-1.5l0,0l4.52,-0.85l0,-28.55q-3.82,-0.69 -4.52,-0.92l0,0q-1.15,-0.23 -1.15,-1.51l0,0l0,-3.31l5.67,0l4.05,0q1.08,0 1.46,0.38l0,0q0.43,0.43 0.66,1.51l0,0l0.46,6.25l0.08,0q4.4,-8.95 12.19,-8.95l0,0q3.08,0 5.44,1.42l0,0l-0.89,5.29q-0.27,1.04 -1,1.04l0,0q-0.62,0 -1.89,-0.39l0,0q-1.43,-0.42 -3.24,-0.42l0,0q-6.95,0 -10.3,8.41l0,0l0,19.75q0.27,0.08 0.86,0.17q0.6,0.1 1.64,0.29q1.05,0.2 2.01,0.39l0,0q1.2,0.23 1.2,1.5l0,0l0,3.32zm13.38,-10.11l0,0q0,-2.54 1.27,-4.59l0,0q1.39,-2.2 4.29,-3.93l0,0q3.2,-1.89 7.56,-2.86l0,0q4.74,-1.04 11.53,-1.04l0,0l0,-3.08q0,-4.71 -2.04,-7.1l0,0q-2.09,-2.43 -5.95,-2.43l0,0q-2.5,0 -4.32,0.69q-1.81,0.7 -3,1.43l0,0q-2.2,1.31 -2.32,1.43l0,0q-0.81,0.61 -1.81,0.61l0,0q-0.81,0 -1.24,-0.3l0,0q-0.54,-0.39 -0.81,-0.97l0,0l-1.27,-2.2q3.05,-2.97 7.14,-4.74l0,0q3.58,-1.58 8.52,-1.58l0,0q3.47,0 5.98,1.12l0,0q2.62,1.15 4.36,3l0,0q1.77,1.89 2.7,4.75l0,0q0.85,2.58 0.85,6.13l0,0l0,19.98q3.47,0.74 3.97,0.89l0,0l0,-0.15q0.5,0.11 0.83,0.54q0.33,0.42 0.33,0.96l0,0l0,3.4l-5.13,0l-0.54,0l-2.55,0q-0.73,0 -1.66,-0.31l0,0q-0.5,-0.16 -0.77,-1.28l0,0l-0.81,-3.78q-0.88,0.74 -3.16,2.59l0,0q-1.54,1.23 -3.12,1.89l0,0q-2.01,0.85 -3.52,1.19l0,0q-1.58,0.39 -4.24,0.39l0,0q-2.24,0 -4.28,-0.69l0,0q-2.39,-0.81 -3.55,-1.89l0,0q-1.43,-1.32 -2.35,-3.32l0,0q-0.89,-1.93 -0.89,-4.75zm6.64,-0.31l0,0q0,1.24 0.57,2.67l0,0q0.51,1.19 1.39,1.89l0,0q0.93,0.69 2.09,1.04l0,0q1.27,0.38 2.58,0.38l0,0q1.58,0 3.32,-0.38l0,0q1.43,-0.31 2.93,-1.04l0,0q1.12,-0.54 2.62,-1.74l0,0q0.77,-0.62 2.36,-2.2l0,0l0,-8.21q-5.13,0 -8.22,0.54l0,0q-2.82,0.5 -5.52,1.65l0,0q-2.27,0.97 -3.16,2.4l0,0q-0.96,1.5 -0.96,3zm33.09,24l0,-3.4q0,-1.27 1.24,-1.5l0,0l4.43,-0.85l0,-42.05q-3.66,-0.65 -4.43,-0.92l0,0q-1.24,-0.23 -1.24,-1.51l0,0l0,-3.31l5.67,0l4.28,0q1.43,0 1.89,1.42l0,0l0.54,4.71l0.08,0q5.71,-6.94 13.43,-6.94l0,0q7.02,0 11.07,5.2l0,0q4.12,5.56 4.12,15.36l0,0q0,8.98 -4.59,14.77l0,0q-4.82,5.98 -12.19,5.98q-7.36,0 -11.53,-4.63l0,0l0,11.84q0.15,0 2.16,0.47l0,0q2.04,0.46 2.28,0.46l0,0q1.27,0.27 1.27,1.5l0,0l0,3.4l-18.48,0zm12.77,-42.59l0,19.37q3.55,4.74 9.18,4.74l0,0q5.86,0 8.83,-3.93l0,0q3.01,-3.98 3.01,-11.38l0,0q0,-14.85 -10.26,-14.85l0,0q-6.21,0 -10.76,6.05l0,0zm31.9,-25.8l0,0l0,-3.32l13.58,0l0,23.53q5.79,-6.02 12.81,-6.02l0,0q6.44,0 9.95,4.13l0,0q3.47,4.13 3.47,11.07l0,0l0,19.63q3.55,0.66 4.51,0.97l0,0q1.2,0.23 1.2,1.5l0,0l0,3.32l-12.73,0l0,-25.42q0,-9.57 -8.45,-9.57l0,0q-5.75,0 -10.76,5.6l0,0l0,23.72l0.96,0.15q2.82,0.54 3.48,0.7l0,0q1.27,0.27 1.27,1.5l0,0l0,3.32l-18.48,0l0,-3.32q0,-1.27 1.24,-1.5l0,0l4.43,-0.85l0,-46.71q-4.51,-0.7 -5.21,-0.93l0,0q-1.27,-0.27 -1.27,-1.5zm47.33,18.16l0,0l0,-3.39l17.94,0l0,3.39q0,1.2 -1.2,1.43l0,0q-0.77,0.27 -4.43,0.93l0,0l8.95,20.87q0.3,0.73 1,3.62l0,0q0.5,-1.66 1.27,-3.62l0,0l8.6,-20.87q-0.92,-0.2 -1.81,-0.37q-0.89,-0.17 -1.58,-0.31q-0.69,-0.13 -0.93,-0.17l0,0q-1.11,-0.23 -1.11,-1.51l0,0l0,-3.31l14.85,0l2.85,-0.08l0,3.39q0,1.2 -1.2,1.43l0,0q-0.11,0 -0.38,0.06q-0.27,0.06 -0.77,0.19q-0.5,0.14 -0.97,0.21l0,0q-1.85,0.39 -2,0.39l0,0l-19.83,46.14q-0.73,1.73 -2.51,1.73l0,0l-5.2,0l7.25,-15.85l-14.04,-32.1q-2.51,-0.42 -3.59,-0.77l0,0q-1.16,-0.23 -1.16,-1.43z"/>
  </g>
  <g id="tagline-29b8ebe0-e353-47fd-aab8-bf680362ae97-logo-path" transform="matrix(1.9692780337941629,0,0,1.9692780337941629,640.7942494627348,396.1066898106991) ">
   <path fill="#ffffff" id="svg_8" stroke=" none" stroke-linecap="round" d="m-18.95924,-14.79227l-43.33,0l0,-7.73q0,-2.9 2.46,-3.43l0,0l10.46,-2.02l0,-102.75q-8.7,-1.58 -10.81,-2.11q-2.11,-0.52 -2.11,-3.25l0,0l0,-7.56l43.33,0l0,7.56q0,2.9 -2.72,3.43l0,0l-10.37,1.93l0,102.75q8.08,1.49 10.98,2.19l0,0q2.11,0.53 2.11,3.26l0,0l0,7.73z"/>
  </g>
 </g>
</svg>