<svg width="1046" height="306" xmlns="http://www.w3.org/2000/svg">
 <desc>Created with Fabric.js 3.6.3</desc>

 <g>
  <title>background</title>
  <rect fill="none" id="canvas_background" height="308" width="1048" y="-1" x="-1"/>
 </g>
 <g>
  <title>Layer 1</title>
  <g id="text-logo-path" transform="matrix(1.9692780337941629,0,0,1.9692780337941629,816.7302148116387,515.7398800378116) ">
   <path fill="#ffffff" id="svg_2" stroke=" none" stroke-linecap="round" d="m-224.36663,-168.73031l-11.43,0l0,-2.11q0,-0.33 0.21,-0.59q0.22,-0.27 0.53,-0.34l0,0l2.85,-0.55l0,-17.68q-2.42,-0.43 -2.85,-0.53l0,0q-0.31,-0.07 -0.53,-0.33q-0.21,-0.26 -0.21,-0.6l0,0l0,-2.06l7.89,0l0,21.2q2.37,0.46 2.8,0.55l0,0q0.31,0.07 0.53,0.34q0.21,0.26 0.21,0.59l0,0l0,2.11zm-8.78,-32.59l0,0q0,-0.74 0.24,-1.22l0,0q0.34,-0.67 0.7,-1.03l0,0q0.4,-0.4 0.98,-0.69l0,0q0.48,-0.24 1.17,-0.24q0.69,0 1.17,0.24l0,0q0.58,0.29 0.98,0.69l0,0q0.36,0.36 0.7,1.03l0,0q0.28,0.58 0.28,1.22l0,0q0,0.6 -0.28,1.18q-0.29,0.57 -0.7,0.98q-0.4,0.4 -0.98,0.69l0,0q-0.48,0.24 -1.17,0.24q-0.69,0 -1.17,-0.24l0,0q-0.58,-0.29 -0.98,-0.69q-0.41,-0.41 -0.7,-0.98l0,0q-0.24,-0.48 -0.24,-1.18zm23.07,32.59l-11.42,0l0,-2.06q0,-0.79 0.67,-0.93l0,0l2.85,-0.53l0,-17.7q-2.46,-0.46 -2.85,-0.58l0,0q-0.67,-0.14 -0.67,-0.93l0,0l0,-2.06l3.52,0l2.56,0q0.89,0 1.17,0.89l0,0l0.34,2.53l0,0.05q3.13,-3.87 7.01,-3.87l0,0q2.54,0 4.11,1.43l0,0q1.54,1.39 2.25,3.76l0,0q1.06,-2.63 3.23,-3.9l0,0q2.23,-1.29 4.33,-1.29l0,0q2.06,0 3.81,0.64l0,0q1.58,0.58 2.65,1.82l0,0q2.16,2.46 2.16,6.96l0,0l0,12.25q2.46,0.46 2.84,0.58l0,0q0.75,0.14 0.75,0.88l0,0l0,2.16l-7.9,0l0,-15.82q0,-3.01 -1.27,-4.43l0,0q-1.36,-1.5 -3.73,-1.5l0,0q-2.27,0 -3.73,1.46l0,0q-1.6,1.6 -1.6,4.42l0,0l0,12.25q0.09,0.03 0.45,0.11q0.36,0.08 0.99,0.22q0.64,0.13 1.33,0.25l0,0q0.74,0.14 0.74,0.88l0,0l0,2.11l-7.89,0l0,-15.82q0,-5.88 -4.69,-5.88l0,0q-3.04,0 -5.55,3.23l0,0l0,14.9l1.34,0.24q1.31,0.29 1.46,0.29l0,0q0.74,0.14 0.74,0.93l0,0l0,2.06zm43.59,0l-11.41,0l0,-2.06q0,-0.79 0.67,-0.93l0,0l2.84,-0.53l0,-17.7q-2.46,-0.46 -2.84,-0.58l0,0q-0.67,-0.14 -0.67,-0.93l0,0l0,-2.06l3.51,0l2.56,0q0.89,0 1.18,0.89l0,0l0.33,2.53l0,0.05q3.14,-3.87 7.01,-3.87l0,0q2.54,0 4.12,1.43l0,0q1.53,1.39 2.25,3.76l0,0q1.05,-2.63 3.23,-3.9l0,0q2.22,-1.29 4.33,-1.29l0,0q2.05,0 3.8,0.64l0,0q1.58,0.58 2.66,1.82l0,0q2.15,2.46 2.15,6.96l0,0l0,12.25q2.46,0.46 2.85,0.58l0,0q0.74,0.14 0.74,0.88l0,0l0,2.16l-7.9,0l0,-15.82q0,-3.01 -1.26,-4.43l0,0q-1.37,-1.5 -3.74,-1.5l0,0q-2.27,0 -3.73,1.46l0,0q-1.6,1.6 -1.6,4.42l0,0l0,12.25q0.09,0.03 0.45,0.11q0.36,0.08 1,0.22q0.63,0.13 1.32,0.25l0,0q0.75,0.14 0.75,0.88l0,0l0,2.11l-7.9,0l0,-15.82q0,-5.88 -4.69,-5.88l0,0q-3.04,0 -5.55,3.23l0,0l0,14.9l1.34,0.24q1.32,0.29 1.46,0.29l0,0q0.74,0.14 0.74,0.93l0,0l0,2.06zm31.49,-12.94l0,0q0,-2.56 0.83,-4.79l0,0q0.91,-2.39 2.3,-3.92l0,0q1.48,-1.63 3.69,-2.61l0,0q2.1,-0.93 4.83,-0.93l0,0l-0.1,0q2.16,0 4.12,0.74l0,0q1.91,0.72 3.23,2.1l0,0q1.51,1.61 2.18,3.5l0,0q0.76,2.17 0.76,4.69l0,0q0,1.1 -0.19,1.36l0,0q-0.26,0.36 -0.89,0.36l0,0l-16.46,0q0,2.27 0.6,4.11l0,0q0.5,1.54 1.65,2.85l0,0q1.06,1.2 2.47,1.75l0,0q1.53,0.6 3.13,0.6l0,0q1.75,0 2.85,-0.34l0,0q0.84,-0.26 2.06,-0.84l0,0q0.83,-0.4 1.46,-0.79q0.62,-0.38 0.98,-0.38l0,0q0.55,0 0.83,0.43l0,0l1.22,1.63q-0.69,0.88 -1.96,1.65l0,0q-1.58,0.96 -2.39,1.22l0,0q-1.63,0.53 -2.66,0.69l0,0q-1.48,0.24 -2.68,0.24l0,0q-2.65,0 -4.76,-0.86q-2.1,-0.86 -3.78,-2.61l0,0q-1.53,-1.58 -2.44,-4.16l0,0q-0.88,-2.49 -0.88,-5.69zm4.49,-2.16l0,0l13.5,0q0,-1.41 -0.46,-2.72l0,0q-0.52,-1.51 -1.17,-2.23l0,0q-0.84,-0.91 -2.01,-1.41q-1.17,-0.5 -2.7,-0.5l0,0l0.05,-0.05q-3.19,0 -4.93,1.82l0,0q-1.84,1.91 -2.28,5.09zm31.71,15.1l-11.42,0l0,-2.06q0,-0.79 0.72,-0.93l0,0l2.8,-0.53l0,-17.7q-2.37,-0.43 -2.8,-0.58l0,0q-0.72,-0.14 -0.72,-0.93l0,0l0,-2.06l3.52,0l2.51,0q0.67,0 0.91,0.24l0,0q0.27,0.27 0.41,0.94l0,0l0.29,3.87l0.04,0q2.73,-5.55 7.56,-5.55l0,0q1.92,0 3.38,0.89l0,0l-0.55,3.27q-0.17,0.65 -0.62,0.65l0,0q-0.39,0 -1.18,-0.24l0,0q-0.88,-0.26 -2.01,-0.26l0,0q-4.3,0 -6.38,5.21l0,0l0,12.25q0.16,0.05 0.53,0.11q0.37,0.06 1.02,0.18q0.65,0.12 1.24,0.24l0,0q0.75,0.14 0.75,0.93l0,0l0,2.06zm10.12,-0.98l0,0l0,-6.46l1.77,0q0.57,0 0.72,0.57l0,0q0,0.08 0.03,0.4q0.04,0.32 0.12,1.13q0.08,0.82 0.16,1.61l0,0q1.93,0.98 5.04,0.98l0,0q2.37,0 3.81,-1.22l0,0q1.29,-1.15 1.29,-2.49l0,0q0,-1.39 -0.6,-2.06l0,0q-0.76,-0.86 -1.46,-1.19l0,0q-1.12,-0.55 -2.05,-0.77l0,0q-3.62,-1.17 -4.57,-1.58l0,0q-1.08,-0.48 -2.21,-1.36l0,0q-2.05,-1.7 -2.05,-4.62l0,0q0,-2.97 2.34,-5l0,0q2.47,-2.15 6.96,-2.15l0,0l-0.04,0q2.51,0 6.46,1.34l0,0l0,1.69l0,4.67l-1.89,0q-0.7,0 -0.84,-0.69l0,0q0,-0.05 -0.04,-0.39q-0.03,-0.33 -0.12,-1.16q-0.08,-0.82 -0.15,-1.68l0,0q-2.39,-0.55 -3.81,-0.55l0,0l-0.04,0q-1.99,0 -3.4,1.1l0,0q-1.32,1.03 -1.32,2.25l0,0q0,1.26 0.6,1.86l0,0q0.98,1.13 2.82,1.7l0,0q0.41,0.12 1.5,0.44q1.09,0.33 1.54,0.49l0,0l2.37,0.89q0.86,0.31 2.06,1.27l0,0q2.01,1.58 2.01,4.33l0,0q0,3.56 -2.42,5.67l0,0q-2.63,2.29 -6.55,2.29l0,0q-4.1,0 -8.04,-1.31zm21.1,-6.17q-0.79,-2.09 -0.79,-5.29q0,-3.21 0.79,-5.29l0,0q0.96,-2.51 2.39,-4.02l0,0q1.58,-1.65 3.78,-2.56l0,0q2.16,-0.88 4.91,-0.88l0,0q2.72,0 4.88,0.88l0,0q2.2,0.91 3.78,2.56l0,0q1.48,1.56 2.34,4.02l0,0q0.84,2.39 0.84,5.29q0,2.89 -0.84,5.29l0,0q-0.86,2.46 -2.34,4.02l0,0q-1.56,1.62 -3.78,2.53l0,0q-2.16,0.89 -4.88,0.89l0,0q-2.75,0 -4.91,-0.89l0,0q-2.22,-0.91 -3.78,-2.53l0,0q-1.43,-1.51 -2.39,-4.02l0,0zm3.71,-5.2l0,0q0,1.87 0.5,3.93l0,0q0.41,1.7 1.36,2.94l0,0q0.87,1.13 2.28,1.75l0,0q1.6,0.69 3.23,0.69l0,0q3.78,0 5.48,-2.44l0,0q1.81,-2.61 1.81,-6.91q0,-4.31 -1.81,-6.92l0,0q-1.7,-2.44 -5.48,-2.44l0,0q-1.89,0 -3.23,0.58l0,0q-1.27,0.55 -2.28,1.86l0,0q-0.95,1.25 -1.36,2.94l0,0q-0.5,2.06 -0.5,4.02zm20.77,14.69l0,0q0,-1.79 1.19,-3.13q1.2,-1.34 3.23,-2.06l0,0q-1.07,-0.43 -1.67,-1.31l0,0q-0.63,-0.89 -0.63,-2.2l0,0q0,-0.32 0.2,-1.08l0,0q0.14,-0.6 0.57,-1.17q0.43,-0.58 1.03,-1.1l0,0q0.1,-0.1 1.39,-0.87l0,0q-1.85,-1.05 -2.9,-2.75l0,0q-1.03,-1.67 -1.03,-3.97l0,0q0,-1.91 0.67,-3.28l0,0q0.72,-1.48 1.97,-2.51l0,0q1.22,-1 3.03,-1.6l0,0q1.68,-0.55 3.78,-0.55l0,0l-0.09,0.09q1.6,0 2.99,0.36l0,0q1.31,0.34 2.54,1.08l0,0l6.77,0l0,1.6q0,0.82 -1.03,1.03l0,0l-2.8,0.41q0.79,1.41 0.79,3.52l0,0q0,1.86 -0.7,3.27l0,0q-0.76,1.58 -1.89,2.52l0,0q-1.34,1.1 -2.94,1.65l0,0q-1.63,0.55 -3.73,0.55l0,0q-1.75,0 -3.28,-0.43l0,0q-0.67,0.4 -1.17,1.07l0,0q-0.41,0.55 -0.41,1.08l0,0q0,0.91 0.7,1.31l0,0q0.86,0.53 1.91,0.65l0,0q1.58,0.19 2.68,0.19l0,0q0.98,0 3.04,0.19l0,0q2.53,0.24 3.04,0.34l0,0q1.46,0.29 2.7,0.88l0,0q1.1,0.53 1.91,1.73l0,0q0.7,1 0.7,2.75l0,0q0,1.72 -0.79,3.13l0,0q-0.74,1.32 -2.37,2.63l0,0q-1.44,1.15 -3.61,1.87l0,0q-2.11,0.69 -4.91,0.69l0,0q-2.85,0 -4.81,-0.55l0,0q-2.08,-0.57 -3.37,-1.46l0,0q-1.36,-0.93 -2.01,-2.1l0,0q-0.69,-1.27 -0.69,-2.47zm3.87,-0.38l0,0q0,0.79 0.46,1.56q0.45,0.76 1.31,1.24l0,0q0.98,0.55 2.2,0.81l0,0q1.44,0.32 3.14,0.32l0,0q1.39,0 3.13,-0.36l0,0q1.27,-0.27 2.37,-0.91l0,0q0.96,-0.58 1.46,-1.39l0,0q0.55,-0.91 0.55,-1.77l0,0l0.05,0q0,-0.89 -0.5,-1.46l0,0q-0.53,-0.6 -1.42,-0.89l0,0q-0.93,-0.31 -2.01,-0.43l0,0q-1.93,-0.24 -2.46,-0.26l0,0q-0.43,-0.02 -1.28,-0.05q-0.85,-0.02 -1.3,-0.04l0,0q-0.27,-0.03 -2.52,-0.29l0,0q-1.38,0.64 -2.29,1.63l0,0q-0.89,0.95 -0.89,2.29zm1.53,-18.97l0,0q0,1.05 0.39,2.01l0,0q0.4,1.03 1.02,1.58l0,0q0.79,0.69 1.73,1.03l0,0q0.98,0.33 2.25,0.33l0,0l0,0.1q1.24,0 2.34,-0.39l0,0q0.93,-0.33 1.72,-1.02l0,0q0.72,-0.65 1.03,-1.63l0,0q0.34,-1.05 0.34,-2.01l0,0q0,-2.27 -1.41,-3.61q-1.42,-1.34 -4.02,-1.34q-2.61,0 -4.02,1.34l0,0q-1.37,1.29 -1.37,3.61zm32.04,17.01l-11.41,0l0,-2.06q0,-0.79 0.71,-0.93l0,0l2.8,-0.53l0,-17.7q-2.36,-0.43 -2.8,-0.58l0,0q-0.71,-0.14 -0.71,-0.93l0,0l0,-2.06l3.51,0l2.52,0q0.67,0 0.91,0.24l0,0q0.26,0.27 0.4,0.94l0,0l0.29,3.87l0.05,0q2.72,-5.55 7.56,-5.55l0,0q1.91,0 3.37,0.89l0,0l-0.55,3.27q-0.17,0.65 -0.62,0.65l0,0q-0.38,0 -1.17,-0.24l0,0q-0.89,-0.26 -2.01,-0.26l0,0q-4.31,0 -6.39,5.21l0,0l0,12.25q0.17,0.05 0.54,0.11q0.37,0.06 1.01,0.18q0.65,0.12 1.25,0.24l0,0q0.74,0.14 0.74,0.93l0,0l0,2.06zm8.3,-6.27l0,0q0,-1.58 0.79,-2.85l0,0q0.86,-1.36 2.66,-2.44l0,0q1.98,-1.17 4.69,-1.77l0,0q2.94,-0.64 7.15,-0.64l0,0l0,-1.92q0,-2.92 -1.27,-4.4l0,0q-1.29,-1.51 -3.68,-1.51l0,0q-1.56,0 -2.68,0.43q-1.13,0.43 -1.87,0.89l0,0q-1.36,0.81 -1.43,0.88l0,0q-0.51,0.39 -1.13,0.39l0,0q-0.5,0 -0.76,-0.19l0,0q-0.34,-0.24 -0.51,-0.6l0,0l-0.79,-1.37q1.89,-1.84 4.43,-2.94l0,0q2.23,-0.98 5.29,-0.98l0,0q2.15,0 3.71,0.69l0,0q1.62,0.72 2.7,1.87l0,0q1.1,1.17 1.67,2.94l0,0q0.53,1.61 0.53,3.81l0,0l0,12.39q2.15,0.46 2.47,0.55l0,0l0,-0.09q0.31,0.07 0.51,0.33q0.2,0.26 0.2,0.6l0,0l0,2.1l-3.18,0l-0.33,0l-1.58,0q-0.46,0 -1.03,-0.19l0,0q-0.31,-0.09 -0.48,-0.79l0,0l-0.5,-2.34q-0.55,0.45 -1.96,1.6l0,0q-0.96,0.77 -1.94,1.17l0,0q-1.25,0.53 -2.18,0.75l0,0q-0.98,0.23 -2.63,0.23l0,0q-1.39,0 -2.66,-0.43l0,0q-1.48,-0.5 -2.2,-1.17l0,0q-0.88,-0.81 -1.46,-2.06l0,0q-0.55,-1.19 -0.55,-2.94zm4.12,-0.19l0,0q0,0.77 0.36,1.65l0,0q0.31,0.74 0.86,1.17l0,0q0.57,0.43 1.29,0.65l0,0q0.79,0.24 1.6,0.24l0,0q0.98,0 2.06,-0.24l0,0q0.89,-0.19 1.82,-0.65l0,0q0.69,-0.33 1.63,-1.07l0,0q0.47,-0.39 1.45,-1.37l0,0l0,-5.09q-3.18,0 -5.09,0.33l0,0q-1.75,0.31 -3.42,1.03l0,0q-1.41,0.6 -1.96,1.48l0,0q-0.6,0.94 -0.6,1.87zm20.53,14.88l0,-2.1q0,-0.79 0.76,-0.94l0,0l2.75,-0.52l0,-26.08q-2.27,-0.41 -2.75,-0.58l0,0q-0.76,-0.14 -0.76,-0.93l0,0l0,-2.06l3.51,0l2.66,0q0.88,0 1.17,0.89l0,0l0.34,2.92l0.04,0q3.54,-4.31 8.33,-4.31l0,0q4.35,0 6.87,3.23l0,0q2.56,3.45 2.56,9.52l0,0q0,5.58 -2.85,9.17l0,0q-2.99,3.7 -7.56,3.7q-4.57,0 -7.16,-2.87l0,0l0,7.35q0.1,0 1.34,0.29l0,0q1.27,0.28 1.42,0.28l0,0q0.79,0.17 0.79,0.94l0,0l0,2.1l-11.46,0zm7.91,-26.41l0,12.01q2.21,2.94 5.7,2.94l0,0q3.64,0 5.48,-2.44l0,0q1.86,-2.46 1.86,-7.06l0,0q0,-9.21 -6.36,-9.21l0,0q-3.85,0 -6.68,3.76l0,0zm19.79,-16.01l0,0l0,-2.06l8.42,0l0,14.6q3.59,-3.73 7.95,-3.73l0,0q3.99,0 6.17,2.56l0,0q2.15,2.56 2.15,6.86l0,0l0,12.18q2.2,0.41 2.8,0.6l0,0q0.74,0.14 0.74,0.93l0,0l0,2.06l-7.89,0l0,-15.77q0,-5.93 -5.24,-5.93l0,0q-3.57,0 -6.68,3.47l0,0l0,14.71l0.6,0.1q1.75,0.33 2.15,0.43l0,0q0.79,0.17 0.79,0.93l0,0l0,2.06l-11.46,0l0,-2.06q0,-0.79 0.77,-0.93l0,0l2.75,-0.53l0,-28.97q-2.8,-0.43 -3.23,-0.58l0,0q-0.79,-0.16 -0.79,-0.93zm29.36,11.27l0,0l0,-2.1l11.12,0l0,2.1q0,0.74 -0.74,0.89l0,0q-0.48,0.16 -2.75,0.57l0,0l5.55,12.94q0.19,0.46 0.62,2.25l0,0q0.31,-1.03 0.79,-2.25l0,0l5.34,-12.94q-0.58,-0.12 -1.13,-0.23q-0.55,-0.1 -0.98,-0.19q-0.43,-0.08 -0.57,-0.11l0,0q-0.7,-0.14 -0.7,-0.93l0,0l0,-2.06l9.22,0l1.77,-0.04l0,2.1q0,0.74 -0.74,0.89l0,0q-0.08,0 -0.24,0.03q-0.17,0.04 -0.48,0.12q-0.31,0.09 -0.6,0.13l0,0q-1.15,0.24 -1.24,0.24l0,0l-12.3,28.62q-0.46,1.07 -1.56,1.07l0,0l-3.23,0l4.5,-9.83l-8.71,-19.91q-1.55,-0.26 -2.22,-0.47l0,0q-0.72,-0.15 -0.72,-0.89z"/>
  </g>
  <g id="logo-logo" transform="matrix(1.21538310335532,0,0,1.21538310335532,275.38870901506186,512.012312418764) ">
   <g id="svg_3">
    <g id="svg_4" transform="matrix(1.2141226207495466,0,0,1.2141226207495466,0,0) ">
     <g id="svg_5">
      <g id="svg_6">
       <polygon fill="#ffffff" id="svg_7" stroke=" none" points="17.323122322559357,-143.286889731884 -82.67687386274338,-143.286889731884 -82.67687386274338,-148.1668946146965 12.443125069141388,-148.1668946146965 12.443125069141388,-338.4068848490715 -177.79688423871994,-338.4068848490715 -177.79688423871994,-243.28690499067307 -182.67688912153244,-243.28690499067307 -182.67688912153244,-343.286889731884 17.323122322559357,-343.286889731884 17.323122322559357,-143.286889731884 "/>
      </g>
     </g>
    </g>
   </g>
  </g>
  <g id="tagline-29b8ebe0-e353-47fd-aab8-bf680362ae97-logo-path" transform="matrix(1.9692780337941629,0,0,1.9692780337941629,275.86900900426116,510.1719511401378) ">
   <path stroke-width="0" fill="#ffffff" id="svg_8" stroke=" rgb(66,66,66)" stroke-linecap="round" d="m-48.59164,-142.57031l-26.72,0l0,-4.77q0,-1.79 1.52,-2.11l0,0l6.45,-1.25l0,-63.36q-5.36,-0.97 -6.67,-1.3q-1.3,-0.32 -1.3,-2l0,0l0,-4.67l26.72,0l0,4.67q0,1.78 -1.68,2.11l0,0l-6.39,1.19l0,63.36q4.98,0.92 6.77,1.36l0,0q1.3,0.32 1.3,2l0,0l0,4.77z"/>
  </g>
 </g>
</svg>